<svg width="19" height="19" viewBox="0 0 19 19" fill="none" xmlns="http://www.w3.org/2000/svg">
<path d="M8.99707 0.900513C9.82308 0.874984 10.7851 1.11263 11.6895 1.4884C12.5947 1.86452 13.4514 2.3822 14.0664 2.92493C15.2971 4.01111 15.9457 5.35891 16.0996 6.99036C16.1782 7.82317 15.9149 8.52613 15.5127 9.17688C15.1285 9.79847 14.608 10.3871 14.1338 10.9923L18.0117 14.8702C18.0408 14.8723 18.0609 14.8857 18.0703 14.8937C18.0805 14.9024 18.0866 14.9113 18.0898 14.9161C18.0934 14.9215 18.0959 14.9263 18.0977 14.9298C18.1011 14.9369 18.1039 14.9436 18.1055 14.9484C18.106 14.9499 18.106 14.9517 18.1064 14.9532C18.1081 14.9561 18.1098 14.9591 18.1113 14.962C18.1136 14.9665 18.1166 14.9733 18.1191 14.9806C18.1204 14.9843 18.1218 14.99 18.123 14.9962C18.1242 15.002 18.126 15.0125 18.125 15.0255C18.124 15.0371 18.1183 15.0581 18.1016 15.0792C18.1047 15.175 18.1116 15.3352 18.1152 15.5011C18.1177 15.6137 18.1191 15.7273 18.1172 15.8195C18.1163 15.8621 18.114 15.9017 18.1113 15.9347C18.1142 15.94 18.1175 15.9444 18.1191 15.9493C18.1203 15.9518 18.123 15.9536 18.124 15.9562C18.1353 15.9855 18.1289 16.0111 18.125 16.0236C18.1209 16.0363 18.1156 16.046 18.1123 16.0509C18.1087 16.0562 18.1052 16.0607 18.1025 16.0636C18.0973 16.0694 18.0917 16.074 18.0879 16.0773C18.0865 16.0785 18.0844 16.079 18.083 16.0802C18.0811 16.0826 18.0801 16.0857 18.0781 16.088C18.0748 16.0918 18.0693 16.0974 18.0635 16.1027C18.0605 16.1053 18.056 16.1089 18.0508 16.1124C18.0459 16.1157 18.0368 16.1211 18.0244 16.1251C18.0121 16.1291 17.9856 16.1355 17.9561 16.1241C17.9535 16.1231 17.9517 16.1204 17.9492 16.1193C17.9443 16.1176 17.9398 16.1143 17.9346 16.1115C17.9016 16.1141 17.862 16.1154 17.8193 16.1163C17.7272 16.1182 17.6136 16.1179 17.501 16.1154C17.3356 16.1117 17.1759 16.1048 17.0801 16.1017C17.0588 16.1188 17.0371 16.1241 17.0254 16.1251C17.0124 16.1262 17.0019 16.1243 16.9961 16.1232C16.9899 16.1219 16.9842 16.1206 16.9805 16.1193C16.9731 16.1167 16.9664 16.1137 16.9619 16.1115C16.9595 16.1102 16.9575 16.1079 16.9551 16.1066C16.9529 16.1059 16.9504 16.1063 16.9482 16.1056C16.9434 16.104 16.9368 16.1012 16.9297 16.0978C16.9261 16.0961 16.9214 16.0935 16.916 16.09C16.9112 16.0868 16.9022 16.0806 16.8936 16.0704C16.8854 16.0608 16.8707 16.04 16.8691 16.0099L12.9932 12.1339C12.388 12.6095 11.7996 13.1298 11.1777 13.5138C10.5269 13.9156 9.8233 14.1779 8.99023 14.0997C7.35811 13.9466 6.01131 13.2987 4.9248 12.0665C4.38194 11.4509 3.86354 10.5944 3.4873 9.68958C3.11149 8.7857 2.8743 7.82408 2.90039 6.99719C2.95266 5.3457 3.77767 4.07962 4.92969 2.92883C6.08045 1.7792 7.34753 0.951577 8.99707 0.900513ZM9 3.09973C8.37327 3.10229 7.8573 3.13059 7.38965 3.26477C6.92504 3.39809 6.50318 3.63739 6.07031 4.07043C5.63745 4.50348 5.398 4.92529 5.26465 5.38977C5.13047 5.85729 5.10217 6.37319 5.09961 7.00012C5.09706 7.62563 5.12689 8.39462 5.26562 9.11633C5.40488 9.84065 5.65162 10.5031 6.07129 10.9298C6.27713 11.1391 6.61674 11.3215 6.98828 11.4845C7.17241 11.5653 7.36101 11.641 7.54102 11.7111C7.72024 11.7809 7.89263 11.8466 8.03906 11.9083C8.18122 11.9682 8.26772 11.9947 8.32715 12.004C8.38147 12.0125 8.41477 12.0069 8.45215 11.9952C8.48654 11.9845 8.55736 11.955 8.63672 11.9357C8.7236 11.9146 8.83653 11.8989 9 11.8995C9.3186 11.9008 9.69045 11.9628 10.0264 11.9913C10.3727 12.0207 10.695 12.0173 10.9619 11.9073C11.2604 11.7844 11.6389 11.65 12.0107 11.4855C12.3814 11.3215 12.7216 11.137 12.9297 10.9288C13.1376 10.7206 13.3214 10.3812 13.4854 10.0109C13.6499 9.63918 13.7844 9.26045 13.9072 8.96204C14.0172 8.69496 14.0206 8.37275 13.9912 8.02649C13.9627 7.69063 13.9017 7.31885 13.9004 7.00012C13.8997 6.83665 13.9145 6.72371 13.9355 6.63684C13.9549 6.55721 13.9844 6.48555 13.9951 6.45129C14.0066 6.41414 14.0124 6.38137 14.0039 6.32727C13.9945 6.26785 13.9681 6.18138 13.9082 6.03918C13.8465 5.89271 13.7807 5.72036 13.7109 5.54114C13.6409 5.36121 13.5661 5.17245 13.4854 4.9884C13.3223 4.61688 13.139 4.27738 12.9297 4.07141C12.5031 3.65158 11.8406 3.40496 11.1162 3.26575C10.3944 3.12705 9.62527 3.09718 9 3.09973Z" fill="white" stroke="white" stroke-width="0.2"/>
</svg>
